<?xml version="1.0" encoding="UTF-8"?>
<svg id="Layer_2" data-name="Layer 2" xmlns="http://www.w3.org/2000/svg" viewBox="0 0 141.37 149.7">
  <defs>
    <style>
      .cls-1 {
        fill: #fff;
      }

      .cls-2 {
        fill: #9fceef;
      }

      .cls-3 {
        fill: #a0ceef;
      }
    </style>
  </defs>
  <g id="Layer_1-2" data-name="Layer 1">
    <g>
      <path class="cls-1" d="m13.91,131.99c-1.63.03-3.25.06-4.88.1-.74,3.51-.15,7.06-.32,10.59-.1,2.07.08,4.14-.09,6.21-1.03.57-2.06.5-3.11.05-.02-4.69-.15-9.39,0-14.07.07-2.23-.51-3.18-2.82-2.83-.88.14-1.81.02-2.71.02v-2.99c4.59-.51,9.19-.16,13.78-.19.71,1.01.5,2.05.14,3.11Z"/>
      <path class="cls-1" d="m13.91,129.12l-13.91-.05v-.5c4.03,0,8.06-.02,12.1.02.77,0,1.67-.36,2.26.52-.15.21-.3.2-.45,0Z"/>
      <path class="cls-1" d="m85.62.01c1.68,0,3.35,0,5.03-.01,11.22.96,21.37,4.75,30.23,11.75,2.06,1.63,3.81,3.66,5.92,5.71-6.74,2.81-11.49,7.78-16.41,12.48-1.04.99-1.83,1.14-3.01.49-1.49-.83-2.98-1.66-4.65-2.15-1.4-.41-2.1-1.2-1.02-2.7.37-.5.44-1.22.65-1.85-1.67-.95-2.83.3-3.82,1.17-1.02.89-1.65.69-2.71.2-4.2-1.95-8.49-3.7-12.69-5.65-.96-.45-1.47-.34-2.08.39-1.21,1.45-3.35,2.81-3.45,4.31-.11,1.67,2.56,2.35,4.01,3.46,2.45,1.88,4.99,3.65,7.59,5.31,1.14.73.61,1.39.17,1.94-1.08,1.37-1.61,3.02-2.47,4.5-.27.46-.45.99-.04,1.36.49.45.96-.14,1.29-.35,1.49-.98,3.05-1.93,4.32-3.17,1.12-1.09,1.88-.5,2.74.1.87.61,1.65,1.35,2.53,1.94,3.18,2.15,3.21,2.16.74,4.98-3.8,4.33-7.54,8.72-11.7,12.73-10.6,10.21-22.51,18.25-36.78,22.41-3.97,1.16-7.97,2.23-12.16,2.29-2-.26-3.99-.29-5.99.01-6.13-.49-11.68-2.12-15.38-7.57-1.1-1.62-1.59-3.37-1.61-5.29-.28-1.33-.26-2.66-.01-4,.79-7.11,4.09-13.06,8.53-18.48.31.36.3.73.04,1.11-2.37,4.42-4.56,8.9-5.23,13.95-.04.29.11.6.17.9-.29,1.19-.31,2.37,0,3.56-.51,3.47,3.11,6.85,5.72,7.9,5.74,2.31,11.68,1.74,17.62,1.06,1.29-.15,1.31-.66.81-1.6-2.48-4.69-4.01-9.71-4.94-14.92-.26-1.45-.21-2.95-.3-4.42-.3-2.33-.25-4.66-.02-6.99.67-13.74,6.57-25.06,16.62-34.08,7.92-7.11,17.37-11.33,28.13-12.25,1.21-.1,2.41-.36,3.62-.55Z"/>
      <path class="cls-1" d="m137.98,53.9c-1.04,10.23-4.42,19.49-10.93,27.59-4.65,5.78-10.2,10.4-16.77,13.77-4.96,2.54-10.24,4.23-15.79,4.91-1.29.16-2.52.89-3.87.43-2.32-.27-4.65-.29-6.97.01-5.26-.22-10.3-1.39-15.19-3.31-3.13-1.23-6.19-2.59-8.92-4.57-.85-.62-1.7-.64-2.56-.35-7.29,2.43-14.86,3.55-22.41,4.77-1.53.25-3.13.1-4.7.13-2.32.26-4.65.28-6.97-.01-4.82-.03-9.5-.78-13.5-3.61-4.79-3.39-6.83-8.13-5.94-14,.22-1.43-.48-3,.61-4.3,1.48.64.12,2.07.82,2.92.02,6.59,5.32,10.88,11.05,12.43,2.27.61,4.61.97,6.92,1.45.97-.35,1.97-.1,2.96-.18.85,0,1.7,0,2.55,0,.84.07,1.7-.16,2.53.18,6.66-.8,13.2-2.08,19.53-4.38,9.13-3.32,17.62-7.79,25.74-13.12,10.03-6.59,18.9-14.48,27.31-22.95.23-.24.46-.48.71-.7,1.08-.94,1.82-3.5,2.96-2.84,2.21,1.29,3.91,3.51,5.69,5.47.46.5-.34,1.18-.62,1.74-.71,1.38-1.46,2.74-2.22,4.1-.28.51-.69,1-.02,1.51.52.39.98-.06,1.31-.27,1.24-.79,2.5-1.58,3.58-2.57,1.15-1.05,1.91-.82,2.9.21,2.76,2.86,5.66,5.6,8.41,8.48.98,1.03,1.56,1,2.57,0,3.62-3.55,3.68-3.85.91-8.09-1.61-2.46-3-5.09-4.77-7.43-1.32-1.76-1.62-3.29-.37-5.11.45-.65.94-1.58.43-2.14-.51-.57-1.51-.08-2.01.4-1.44,1.36-2.03.63-2.92-.71-3.91-5.92-3.89-5.84.41-11.53,2.81-3.72,5.11-7.76,7-12.61,6.36,8.27,9.64,17.29,10.53,27.26.29,2.35.31,4.69,0,7.04Z"/>
      <path class="cls-1" d="m37.84,139.01c-.15-6.94-4.74-10.21-10.38-10.33-5.76-.11-10.5,3.77-10.63,10.35-.11,5.67,5.09,10.51,10.54,10.62,5.61.13,11.1-5.76,10.47-10.64Zm-10.54,7.28c-3.97-.19-7.07-2.75-6.91-7.39.14-4.07,2.8-6.92,6.79-6.82,3.75.08,7.65,2.71,7.18,6.99.59,3.58-3.16,7.4-7.06,7.22Z"/>
      <path class="cls-1" d="m75.34,141.99c-.64-.87-.74-1.36.24-1.93,2.38-1.4,3.47-3.59,3.02-6.23-.44-2.62-2.09-4.38-4.87-4.82-2.99-.23-5.97-.44-8.95.12v19.81c1.13.46,2.26.46,3.39,0,.04-2.63.08-5.26.12-7.89.81-.52,1.64-.33,2.47-.06,1.8,2.69,3.6,5.37,5.39,8.06,1.24.05,2.6.87,3.59-.58-1.46-2.17-2.85-4.38-4.4-6.48Zm-2.14-4.37c-1.65-.05-3.3-.1-4.95-.15-.01-.66-.03-1.32-.03-1.98-.01-3.42,1.23-4.36,4.61-3.31,1.07.33,2.27.83,2.33,2.23.07,1.46-.18,2.83-1.96,3.21Z"/>
      <path class="cls-1" d="m138.82,141.84c-1.75-4.19-2.85-8.64-4.92-12.71-1.3-.48-2.59-.49-3.88.01-1.46,3.85-3.08,7.65-4.32,11.57-.87,2.77-2.39,5.33-2.68,8.28,1.14.35,2.28.45,3.41-.05.52-1.29,1.05-2.57,1.57-3.85,2.8-.56,5.61-.55,8.41-.01-.02,1.39.82,2.54,1.07,3.86,1.3.48,2.59.48,3.89,0-.84-2.37-1.58-4.78-2.55-7.1Zm-6.76-8.6c1.31,3.01,2.19,5.59,2.81,8.25h-5.83c.94-2.56,1.87-5.12,3.02-8.25Z"/>
      <path class="cls-1" d="m52.31,146.07c2.51-.89,3.42-2.85,3.45-5.32.05-3.87.04-7.74.06-11.61,1.13-.47,2.26-.47,3.38,0,.02,3.96.05,7.92.05,11.88,0,4.42-2.29,7.64-5.95,8.42-4.65.99-8.44-.81-10.39-4.93.44-5.11-.05-10.24.26-15.36,1.03-.53,2.08-.43,3.13-.06l.04-.02c.37,4.82.29,9.64.04,14.45.7,1.14,1.45,2.23,2.89,2.54,1.01.33,2.02.32,3.04,0Z"/>
      <path class="cls-1" d="m92.54,133.06c.82-3.81,4.55-5.42,8.92-3.8.61.23,1.24.5,1.74.9.48.38,1.7.7.82,1.58-.67.67-1.07,2.38-2.64,1.34-.84-.56-1.64-1.04-2.7-1.04-1.2,0-2.38-.07-2.77,1.43-.38,1.45.46,2.37,1.54,2.98,1.13.64,2.37,1.12,3.61,1.53,2.58.87,4.18,2.57,4.48,5.27.26,2.36-1.28,4.92-3.72,5.77-2.61.91-5.32.94-7.72-.82-.4-.29-.77-.65-1.05-1.06-.52-.75-2.16-1.19-.77-2.53,1.1-1.05,2.1-1.4,3.27.03,1.37,1.68,3.02,2.59,5.11,1.02,1.92-1.44,1.86-3.03-.28-4.19-1.58-.85-3.29-1.47-4.88-2.3-1.48-.77-2.86-1.69-2.94-3.63-.28-.83-.26-1.66-.02-2.49Z"/>
      <path class="cls-1" d="m112.96,132.09c-1.63-.03-3.25-.07-4.88-.1-.37-1.05-.55-2.09.12-3.1,4.58.05,9.18-.4,13.75.24.54,2.41-.43,3.36-2.83,2.93-1.99-.35-2.71.36-2.65,2.5.15,4.79.02,9.59,0,14.38-1.04.46-2.07.5-3.1-.03-.19-4.81-.01-9.62-.1-14.43-.01-.8.31-1.66-.31-2.39Z"/>
      <path class="cls-1" d="m84.15,149.44c-.52-.29-.49-.8-.49-1.29,0-6.08,0-12.15,0-18.23,0-.49-.03-1,.49-1.29.22.23.39.5.51.79.42,6.41.42,12.82,0,19.23-.12.3-.3.56-.52.79Z"/>
      <path class="cls-1" d="m87.2,129c.62.6.43,1.39.43,2.11.01,5.28.01,10.57,0,15.85,0,.72.19,1.5-.43,2.11-.11-.11-.23-.22-.34-.32-.84-1.9-.48-3.92-.45-5.88.05-4.37-.33-8.76.23-13.12.11-.3.3-.55.56-.74Z"/>
      <path class="cls-1" d="m112.96,132.09c.94.67.54,1.66.55,2.51.05,4.78.04,9.57.05,14.35-.15.23-.31.22-.47,0-.04-5.62-.09-11.24-.13-16.87Z"/>
      <path class="cls-1" d="m8.43,148.95c.01-4.78,0-9.57.05-14.35,0-.85-.39-1.84.55-2.51-.05,5.62-.09,11.24-.14,16.87-.16.23-.31.22-.47,0Z"/>
      <path class="cls-1" d="m43.35,129.12c-.01,4.35-.01,8.7-.04,13.05,0,.79.26,1.66-.4,2.35,0-5.13-.01-10.26-.02-15.4.16-.22.31-.23.47,0Z"/>
      <path class="cls-1" d="m46.39,143.52c-.01-4.82-.03-9.64-.04-14.45.94,1.6.46,3.35.42,5.01-.08,3.15.54,6.33-.38,9.45Z"/>
      <path class="cls-1" d="m121.95,129.13c-4.62,0-9.24,0-13.86,0-.15.19-.31.2-.45,0,.5-.81,1.31-.52,2-.52,3.44-.03,6.88-.03,10.32,0,.69,0,1.51-.3,1.99.54Z"/>
      <path class="cls-1" d="m73.73,129.01c-2.98.04-5.96.08-8.95.12,2.97-.97,5.96-.77,8.95-.12Z"/>
      <path class="cls-1" d="m128,145.09c2.8-.93,5.61-.91,8.41,0-2.8,0-5.61,0-8.41,0Z"/>
      <path class="cls-1" d="m37.25,46.89c0,2.33.02,4.66.02,6.99-.69-2.33-.65-4.65-.02-6.99Z"/>
      <path class="cls-3" d="m137.98,53.9c0-2.35,0-4.69,0-7.04.7,2.35.71,4.69,0,7.04Z"/>
      <path class="cls-1" d="m83.65,100.61c2.32-.68,4.65-.66,6.97-.01-2.32,0-4.65,0-6.97.01Z"/>
      <path class="cls-1" d="m22.9,97.27c2.32,0,4.65,0,6.97,0-2.33.66-4.65.68-6.97,0Z"/>
      <path class="cls-1" d="m31.86,81.68c1.99-.67,3.99-.66,5.99-.01-2,0-3.99,0-5.99.01Z"/>
      <path class="cls-1" d="m4.89,78.27c-.9-.8.08-2.13-.82-2.92.02-.31-.12-.71.31-.83.43-.12.57.21.57.55,0,1.07-.03,2.14-.05,3.2Z"/>
      <path class="cls-1" d="m76.15,149.06c1.18-.32,2.53.44,3.59-.58.45.51.33.97-.32.97-1.09,0-2.26.44-3.26-.38Z"/>
      <path class="cls-2" d="m133.9,129.13c-1.29,0-2.58,0-3.87,0,1.29-.87,2.58-.85,3.87,0Z"/>
      <path class="cls-2" d="m137.48,148.94c1.29,0,2.59,0,3.88,0-1.29.85-2.59.85-3.88,0Z"/>
      <path class="cls-1" d="m14.86,64.82c0,1.33,0,2.66.01,4-.66-1.33-.66-2.66-.01-4Z"/>
      <path class="cls-1" d="m123.02,148.99c1.13-.02,2.27-.03,3.4-.05-1.04,1.03-2.28.44-3.45.43-.03,0-.1-.13-.09-.18.01-.07.09-.14.14-.2Z"/>
      <path class="cls-1" d="m59.2,129.13c-1.13,0-2.26,0-3.38,0,1.13-.89,2.26-.89,3.38,0Z"/>
      <path class="cls-1" d="m43.35,129.12l-.23-.02s-.23.01-.23.01c1.13-.88,2.27-.83,3.41-.03-.98.01-1.96.02-2.94.03Z"/>
      <path class="cls-1" d="m18.37,65.86c-.69-1.18-.69-2.37,0-3.56,0,1.19,0,2.37,0,3.56Z"/>
      <path class="cls-1" d="m8.43,148.95c.16.02.31.02.47,0-1.13.85-2.25.89-3.37-.01.97,0,1.94,0,2.91.01Z"/>
      <path class="cls-1" d="m64.78,148.94c1.13,0,2.26,0,3.38,0-1.13.89-2.26.89-3.38,0Z"/>
      <path class="cls-1" d="m113.1,148.95c.16.02.31.02.47,0,.97,0,1.94,0,2.91-.01-1.12.9-2.25.87-3.37.01Z"/>
      <path class="cls-1" d="m13.91,129.12c.15-.02.3-.02.45,0-.06.97.55,2.05-.44,2.88,0-.96,0-1.91,0-2.87Z"/>
      <path class="cls-1" d="m84.17,129.11c0-.16,0-.32-.01-.48,1.03.05,2.11-.39,3.05.37,0,0-.13.14-.13.14-.98.74-1.94.66-2.9-.04Z"/>
      <path class="cls-1" d="m107.64,129.11c.15-.02.3-.01.45,0,0,.96,0,1.91,0,2.87-1-.83-.39-1.9-.44-2.88Z"/>
      <path class="cls-1" d="m52.31,146.07c-1.01.69-2.03.65-3.04,0,1.01,0,2.03,0,3.04,0Z"/>
      <path class="cls-1" d="m84.15,149.44c0-.16,0-.32.01-.48.96-.7,1.93-.78,2.9-.04,0,0,.13.14.13.14-.94.76-2.02.33-3.05.37Z"/>
      <path class="cls-1" d="m68.29,141.06c.8-.86,1.63-.68,2.47-.07-.82.02-1.65.05-2.47.07Z"/>
      <path class="cls-1" d="m92.54,133.06c0,.83.01,1.66.02,2.49-.65-.83-.64-1.66-.02-2.49Z"/>
      <path class="cls-1" d="m73.2,137.62c-1.66.17-3.32.44-4.95-.15,1.65.05,3.3.1,4.95.15Z"/>
      <path class="cls-1" d="m73.2,137.62c-1.67.58-3.33.81-4.95-.15,1.65.05,3.3.1,4.95.15Z"/>
      <path class="cls-1" d="m134.87,141.49c-1.94.44-3.89.44-5.83,0h5.83Z"/>
      <path class="cls-1" d="m134.87,141.49c-1.94.85-3.89.85-5.83,0h5.83Z"/>
      <path class="cls-1" d="m87.07,148.93c-.97.01-1.94.02-2.9.04,0-6.62,0-13.24,0-19.85.97.01,1.94.02,2.9.04,0,6.59,0,13.19,0,19.78Z"/>
    </g>
  </g>
</svg>